<?xml version="1.0" encoding="UTF-8" standalone="no"?>
<svg
   width="430"
   height="90"
   viewBox="0 0 430 90"
   fill="none"
   version="1.1"
   id="svg74"
   sodipodi:docname="download.svg"
   inkscape:version="1.2.2 (b0a8486541, 2022-12-01)"
   xmlns:inkscape="http://www.inkscape.org/namespaces/inkscape"
   xmlns:sodipodi="http://sodipodi.sourceforge.net/DTD/sodipodi-0.dtd"
   xmlns="http://www.w3.org/2000/svg"
   xmlns:svg="http://www.w3.org/2000/svg">
  <defs
     id="defs78" />
  <sodipodi:namedview
     id="namedview76"
     pagecolor="#ffffff"
     bordercolor="#000000"
     borderopacity="0.25"
     inkscape:showpageshadow="2"
     inkscape:pageopacity="0.0"
     inkscape:pagecheckerboard="0"
     inkscape:deskcolor="#d1d1d1"
     showgrid="false"
     inkscape:zoom="5.607438"
     inkscape:cx="247.35004"
     inkscape:cy="62.327929"
     inkscape:window-width="3840"
     inkscape:window-height="2160"
     inkscape:window-x="0"
     inkscape:window-y="0"
     inkscape:window-maximized="1"
     inkscape:current-layer="svg74" />
  <path
     d="m 240.384,74.5122 -0.479,1.3467 h -0.177 l -0.479,-1.3433 v 1.3433 h -0.308 v -1.8355 h 0.383 l 0.492,1.3638 0.493,-1.3638 h 0.382 v 1.8355 h -0.307 z m -1.713,-0.2119 h -0.502 v 1.5586 h -0.311 v -1.5586 h -0.506 v -0.2769 h 1.319 z"
     fill="#262a38"
     id="path64" />
  <path
     d="m 154.123,13.915 v 61.4377 h -12.451 v -6.2659 c -1.302,2.1971 -3.173,3.9874 -5.452,5.1266 -2.441,1.2206 -5.208,1.8716 -7.974,1.8716 -3.418,0.0814 -6.836,-0.8951 -9.684,-2.8481 -2.929,-1.953 -5.208,-4.6383 -6.673,-7.8119 -1.627,-3.6619 -2.441,-7.5678 -2.36,-11.5552 -0.081,-3.9873 0.733,-7.8933 2.36,-11.4737 1.465,-3.0923 3.744,-5.7776 6.592,-7.6492 2.929,-1.8716 6.347,-2.7668 9.765,-2.6854 2.685,0 5.37,0.5696 7.73,1.7902 2.279,1.1393 4.15,2.8482 5.452,4.9639 V 18.0651 Z M 139.15,63.2279 c 1.627,-2.1158 2.522,-5.208 2.522,-9.1953 0,-3.9874 -0.813,-6.9982 -2.522,-9.1139 -1.709,-2.1158 -4.395,-3.3364 -7.161,-3.255 -2.767,-0.1628 -5.452,1.0578 -7.243,3.1736 -1.708,2.1157 -2.604,5.1266 -2.604,9.0325 0,3.9874 0.896,7.0796 2.604,9.2767 1.709,2.1971 4.476,3.4177 7.243,3.3363 3.092,0 5.533,-1.1392 7.161,-3.2549 z"
     fill="#262a38"
     id="path66" />
  <path
     d="m 198.635,34.6655 c 2.929,1.8716 5.208,4.557 6.591,7.6492 1.627,3.5805 2.441,7.4864 2.36,11.4738 0.081,3.9873 -0.733,7.9747 -2.36,11.5551 -1.465,3.1736 -3.743,5.859 -6.673,7.812 -2.848,1.8716 -6.266,2.8481 -9.683,2.7667 -2.767,0.0814 -5.534,-0.5696 -7.975,-1.8716 -2.278,-1.1393 -4.15,-2.9295 -5.371,-5.1266 v 6.3472 H 162.993 V 18.0651 l 12.613,-4.1501 v 25.0633 c 1.22,-2.1971 3.092,-3.9873 5.37,-5.1266 2.442,-1.3019 5.127,-1.9529 7.894,-1.8716 3.417,-0.0813 6.835,0.8952 9.765,2.6854 z m -6.185,28.481 c 1.709,-2.1971 2.523,-5.2893 2.523,-9.358 0,-3.906 -0.814,-6.9169 -2.523,-9.0326 -1.709,-2.1157 -4.069,-3.1736 -7.161,-3.1736 -2.766,-0.1627 -5.452,1.0579 -7.242,3.255 -1.709,2.1971 -2.523,5.2079 -2.523,9.1139 0,3.9874 0.814,7.0796 2.523,9.1953 1.709,2.1971 4.394,3.4177 7.242,3.255 2.767,0.1627 5.452,-1.0579 7.161,-3.255 z"
     fill="#262A38"
     id="path68"
     style="fill:#262a38;fill-opacity:1" />
  <path
     d="M 225,42.4774 V 58.915 c 0,2.3599 0.651,4.0688 1.791,5.1266 1.302,1.1393 3.01,1.7089 4.801,1.6275 1.383,0 2.848,-0.2441 4.15,-0.5696 v 9.7649 c -2.36,0.8138 -4.801,1.2206 -7.243,1.1393 -5.207,0 -9.195,-1.4648 -11.962,-4.3943 -2.766,-2.9294 -4.15,-7.0795 -4.15,-12.4502 V 23.1103 L 225,19.0416 V 33.038 h 10.742 v 9.4394 z"
     fill="#262a38"
     id="path70" />
  <path
     d="m 86.1754,3.74322 c 2.1157,2.03436 3.4991,4.71971 3.8246,7.64918 0,1.2206 -0.3255,2.0344 -1.0579,3.5805 -0.7323,1.5461 -9.7649,17.17 -12.4502,21.4828 -1.5461,2.5226 -2.3599,5.5335 -2.3599,8.4629 0,3.0109 0.8138,5.9404 2.3599,8.463 2.6853,4.3128 11.7179,20.018 12.4502,21.5641 0.7324,1.5462 1.0579,2.2785 1.0579,3.4991 -0.3255,2.9295 -1.6275,5.6149 -3.7432,7.5679 -2.0344,2.1157 -4.7197,3.4991 -7.5678,3.7432 -1.2206,0 -2.0344,-0.3255 -3.4991,-1.0579 C 73.7251,87.9656 57.7758,79.1772 53.4629,76.4919 53.1374,76.3291 52.8119,76.085 52.4051,75.9222 L 31.085,63.3092 c 0.4882,4.0687 2.2785,7.9747 5.2079,10.8228 0.5697,0.5696 1.1393,1.0579 1.7903,1.5461 -0.4883,0.2441 -1.0579,0.4883 -1.5461,0.8138 C 32.2242,79.1772 16.519,88.2098 14.9729,88.9421 13.4268,89.6745 12.6944,90 11.3924,90 8.46293,89.6745 5.77758,88.3725 3.82459,86.2568 1.70886,84.2224 0.325497,81.5371 0,78.6076 0.0813743,77.387 0.406872,76.1664 1.05787,75.1085 1.79024,73.5624 10.8228,57.8571 13.5081,53.5443 c 1.5461,-2.5226 2.3599,-5.4521 2.3599,-8.4629 0,-3.0109 -0.8138,-5.9404 -2.3599,-8.463 C 10.8228,32.1429 1.70886,16.4376 1.05787,14.8915 0.406872,13.8336 0.0813743,12.613 0,11.3924 0.325497,8.46293 1.62749,5.77758 3.74322,3.74322 5.77758,1.62749 8.46293,0.325497 11.3924,0 c 1.2206,0.0813743 2.4412,0.406872 3.5805,1.05787 1.302,0.56962 12.7757,7.24231 18.8788,10.82283 l 1.3834,0.8137 c 0.4882,0.3255 0.8951,0.5696 1.2206,0.7324 l 0.651,0.4068 21.7269,12.8572 C 58.3454,21.8083 55.8228,17.3327 51.9168,14.3219 52.4051,14.0778 52.9747,13.8336 53.4629,13.5081 57.7758,10.8228 73.481,1.70886 75.0271,1.05787 76.085,0.406872 77.3056,0.0813743 78.6076,0 c 2.8481,0.325497 5.5335,1.62749 7.5678,3.74322 z M 46.1392,50.7776 50.7776,46.1392 c 0.651,-0.651 0.651,-1.6274 0,-2.2784 l -4.6384,-4.6384 c -0.651,-0.651 -1.6274,-0.651 -2.2784,0 l -4.6384,4.6384 c -0.651,0.651 -0.651,1.6274 0,2.2784 l 4.6384,4.6384 c 0.5696,0.5696 1.6274,0.5696 2.2784,0 z"
     fill="#ff694a"
     id="path72" />
  <text
     xml:space="preserve"
     style="font-style:normal;font-variant:normal;font-weight:bold;font-stretch:normal;font-size:14.6667px;font-family:'Source Code Pro';-inkscape-font-specification:'Source Code Pro Bold';text-align:start;writing-mode:lr-tb;text-anchor:start;fill:#262a38;fill-opacity:1"
     x="114.49891"
     y="8.2055235"
     id="text822"><tspan
       sodipodi:role="line"
       id="tspan820"
       x="114.49891"
       y="8.2055235"></tspan></text>
  <text
     xml:space="preserve"
     style="font-style:normal;font-variant:normal;font-weight:bold;font-stretch:normal;font-size:14.6667px;font-family:'Source Code Pro';-inkscape-font-specification:'Source Code Pro Bold';text-align:start;writing-mode:lr-tb;text-anchor:start;fill:#262a38;fill-opacity:1"
     x="187.85912"
     y="82.115402"
     id="text876"><tspan
       sodipodi:role="line"
       id="tspan874"
       x="187.85912"
       y="82.115402" /></text>
  <text
     xml:space="preserve"
     style="font-style:normal;font-variant:normal;font-weight:bold;font-stretch:normal;font-size:26.6667px;font-family:'Source Code Pro';-inkscape-font-specification:'Source Code Pro Bold';text-align:start;letter-spacing:-1.5px;writing-mode:lr-tb;text-anchor:start;fill:#262a38;fill-opacity:1"
     x="239.19455"
     y="77.997719"
     id="text880"><tspan
       sodipodi:role="line"
       id="tspan878"
       x="239.19455"
       y="77.997719"
       style="font-size:26.6667px;fill:#262a38;fill-opacity:1">(ethPandaOps)</tspan></text>
  <text
     xml:space="preserve"
     style="font-style:normal;font-variant:normal;font-weight:bold;font-stretch:normal;font-size:18.6667px;font-family:'Source Code Pro';-inkscape-font-specification:'Source Code Pro Bold';text-align:start;writing-mode:lr-tb;text-anchor:start;fill:#262a38;fill-opacity:1"
     x="258.01846"
     y="43.291107"
     id="text1009"><tspan
       sodipodi:role="line"
       id="tspan1007"
       x="258.01846"
       y="43.291107"></tspan></text>
</svg>
